<svg width="1024" height="1024" viewBox="0 0 1024 1024" fill="none" xmlns="http://www.w3.org/2000/svg">
<path d="M678.969 756.998C678.969 756.998 678.83 757.202 678.309 757.16C676.183 758.422 674.579 759.726 672.974 761.029C672.974 761.029 672.807 761.204 672.303 761.212C669.532 762.818 667.265 764.416 664.999 766.013C664.999 766.013 665 765.997 664.647 765.989C663.256 766.755 662.22 767.528 661.183 768.301C661.183 768.301 661.151 768.162 660.843 768.146C659.343 769.058 658.152 769.987 656.96 770.916C656.96 770.916 656.715 771.129 656.133 771.086C654.281 771.31 652.868 771.304 651.764 771.884C634.143 781.153 616.021 789.185 596.99 795.178C574.772 802.176 551.954 806.164 528.841 807.826C505.948 809.472 483.047 807.53 460.422 803.801C438.627 800.208 417.575 793.587 397.247 785.014C373.789 775.12 352.092 762.075 331.91 746.513C329.521 744.67 326.597 743.522 323.922 742.051C323.922 742.051 323.992 742.008 323.964 741.692C318.783 736.379 313.646 731.365 308.433 726.43C308.133 726.146 307.221 726.509 306.594 726.57C306.594 726.57 306.535 726.467 306.644 726.084C305.652 724.125 304.798 722.28 303.415 721.012C288.875 707.691 276.826 692.18 266.2 675.796C257.428 662.27 249.877 647.786 243.289 633.054C236.617 618.136 230.696 602.691 226.415 586.942C219.986 563.287 216.772 538.927 217.131 514.341C217.321 501.306 218.344 488.204 220.15 475.294C222.042 461.762 225.32 448.424 228.307 434.965C229.414 434.286 230.207 433.643 231.141 433.32C232.177 435.23 232.819 437.071 234.055 438.326C234.947 439.232 236.629 439.36 237.959 439.835C238.378 438.65 238.813 437.471 239.212 436.279C239.619 435.063 239.681 433.025 240.427 432.74C247.136 430.173 247.345 422.894 250.196 418.011C252.861 413.447 256.417 410.502 258.585 408.103C259.675 404.345 259.706 401.407 261.182 399.776C263.701 396.992 262.511 394.577 262.298 391.632C262.023 387.823 263.102 383.898 263.851 380.073C263.904 379.801 266.131 379.636 267.169 379.971C268.096 380.271 268.776 381.332 269.7 382.182C270.778 380.669 271.486 379.385 272.462 378.354C278.635 371.824 285.284 365.687 290.935 358.738C294.709 354.098 301.76 353.515 303.976 347.306C304.081 347.012 305.321 347.264 305.845 346.949C307.037 346.235 308.374 345.525 309.186 344.459C312.13 340.597 309.875 337.49 307.816 335.362C309.088 332.22 309.71 329.459 311.183 327.268C316.437 319.451 321.967 311.818 327.447 304.154C327.773 303.697 328.868 303.183 329.11 303.362C333 306.248 335.913 302.796 339.102 301.787C345.931 299.625 347.066 297.717 346.377 289.768C350.111 289.768 353.801 289.854 357.484 289.738C359.943 289.661 362.6 289.814 364.795 288.934C367.634 287.795 370.138 285.784 372.719 284.048C375.585 282.119 375.645 278.444 373.163 276.042C371.965 274.883 371.182 273.295 370.212 271.901C371.954 270.931 373.624 269.312 375.45 269.11C381.604 268.43 387.703 266.135 391.1 261.74C395.707 255.781 402.723 256.847 407.927 253.388C408.213 253.198 409.141 253.757 409.64 254.139C414.397 257.775 419.921 256.008 424.182 254.401C428.384 252.815 431.204 250.218 434.691 255.121C435.357 256.058 437.785 255.933 439.407 255.964C444.422 256.063 449.44 256 454.851 256C450.7 260.052 451.844 263.646 455.652 267.306C457.84 269.409 457.76 271.667 454.415 273.105C453.37 273.554 452.687 274.848 451.944 275.643C455.418 277.301 458.208 278.632 460.609 279.979C457.815 280.668 455.409 281.341 452.682 282.04C451.976 282.5 451.589 282.934 451.203 283.369C451.203 283.369 451.123 283.326 450.726 283.197C442.649 283.858 435.462 286.11 428.926 290.292C428.926 290.292 428.788 290.345 428.295 290.229C423.259 292.183 418.715 294.252 414.171 296.321C414.171 296.321 414.073 296.168 413.815 296.148C413.074 296.501 412.592 296.875 412.11 297.248C412.11 297.248 412.081 297.147 411.776 297.122C409.631 298.143 407.792 299.189 405.953 300.234C405.817 300.38 405.68 300.526 405.028 300.53C396.527 304.593 388.108 308.152 380.647 313.142C365.771 323.092 351.512 334.034 339.888 347.774C329.53 360.018 319.237 372.431 310.224 385.661C303.178 396.003 297.398 407.392 292.42 418.905C287.791 429.614 284.332 440.945 281.515 452.29C278.339 465.077 275.587 478.098 274.265 491.18C273.056 503.133 273.426 515.338 274.164 527.367C274.89 539.21 275.777 551.272 278.707 562.697C282.959 579.275 288.893 595.442 294.599 611.613C296.069 615.779 299.365 619.301 301.867 623.501C302.109 624.852 302.099 625.927 302.532 626.775C311.72 644.771 323.459 661.099 337.4 675.55C347.846 686.377 359.557 696.066 371.261 705.575C386.818 718.213 404.549 727.515 423.146 734.604C436.963 739.872 451.443 743.815 465.953 746.733C480 749.559 494.426 750.995 508.753 751.757C518.771 752.29 529.052 751.521 538.951 749.806C555.547 746.931 572.432 744.293 588.267 738.85C604.262 733.353 619.249 724.806 634.418 717.086C639.374 714.564 643.517 710.447 648.382 707.008C650.157 706.131 651.708 705.467 652.987 704.458C666.566 693.749 679.199 682.09 690.628 669.03C703.142 654.729 713.497 638.997 722.121 622.241C727.997 610.822 732.467 598.624 736.897 586.529C744.244 566.47 747.433 545.625 748.136 524.262C748.519 512.6 751.412 502.004 762.943 495.202C778.679 485.92 800.042 493.766 803.741 512.122C805.434 520.522 804.262 529.552 803.991 538.285C803.518 553.546 801.209 568.594 796.909 583.232C792.628 597.805 788.922 612.72 782.829 626.543C775.724 642.658 767.192 658.328 757.632 673.126C748.417 687.389 738.039 701.172 726.449 713.553C714.486 726.332 700.428 737.146 687.353 748.894C686.413 749.738 686.014 751.184 685.364 752.35C685.364 752.35 685.298 752.348 685.011 752.323C684.524 752.603 684.323 752.908 684.122 753.214C684.122 753.214 684.081 753.088 683.792 753.096C683.127 753.549 682.751 753.996 682.375 754.442C682.375 754.442 682.155 754.43 681.906 754.327C680.762 755.148 679.866 756.073 678.969 756.998Z" fill="#3A7AC0"/>
<path d="M697.988 309.935C698.044 309.604 698.21 309.344 699.06 309.05C701.336 306.877 703.038 304.807 704.741 302.736C704.741 302.736 704.958 303.001 705.223 302.923C706.266 301.968 707.044 301.091 707.822 300.214C706.858 299.475 705.98 298.265 704.916 298.069C695.212 296.283 685.514 294.372 675.738 293.092C664.764 291.655 655.993 287.772 652.953 275.542C652.977 272.416 652.884 269.746 653.011 267.087C653.405 258.759 661.057 250.046 669.022 249.036C693.115 245.982 717.215 242.983 741.321 240.035C758.047 237.99 774.795 236.13 791.516 234.055C798.824 233.149 806.818 236.494 807.859 241.585C808.617 245.288 809.072 249.158 808.914 252.922C808.509 262.51 807.648 272.078 807.036 281.658C806.002 297.855 805.026 314.055 804.014 330.252C803.023 346.117 802.091 361.985 800.99 377.842C800.255 388.424 791.94 397.265 782.333 398C769.298 398.996 760.397 393.227 757.971 381.129C755.505 368.835 753.914 356.365 752.014 343.96C751.633 341.474 751.564 338.965 747.644 341.027C745.773 342.308 744.088 343.402 742.741 344.818C724.525 363.963 706.334 383.131 688.185 402.34C678.603 412.483 669.166 422.764 659.574 432.898C640.608 452.939 621.624 472.963 602.562 492.911C591.067 504.94 579.483 516.885 567.807 528.738C556.662 540.052 545.389 551.243 534.086 562.4C528.31 568.103 514.22 568.38 507.84 564.11C502.116 560.278 496.714 555.829 491.709 551.084C478.305 538.378 465.178 525.379 451.985 512.452C450.827 511.318 449.667 509.994 449.05 508.529C442.752 493.571 445.841 481.374 457.911 471.783C465.745 465.557 482.093 465 489.583 472.006C498.071 479.945 506.656 487.779 515.181 495.678C518.652 498.895 520.988 498.779 524.016 495.451C531.502 487.224 538.949 478.956 546.634 470.916C558.475 458.528 570.54 446.353 582.393 433.976C583.643 432.672 584.116 430.624 584.949 428.921C584.949 428.921 584.993 428.992 585.308 428.962C588.27 425.836 590.917 422.739 593.564 419.643C593.564 419.643 593.643 419.644 593.999 419.719C595.688 418.902 597.249 418.224 598.318 417.084C606.253 408.619 614 399.975 621.98 391.553C636.479 376.251 651.08 361.044 665.675 345.833C675.309 335.792 685.04 325.845 694.626 315.759C695.614 314.72 695.903 313.018 696.517 311.623C696.517 311.623 696.536 311.669 696.891 311.651C697.493 311.067 697.741 310.501 697.988 309.935Z" fill="#397ABF"/>
<path d="M460.998 279.963C458.208 278.632 455.418 277.301 451.944 275.643C452.687 274.848 453.369 273.554 454.415 273.105C457.76 271.667 457.84 269.409 455.652 267.306C451.844 263.646 450.7 260.052 454.851 256C449.44 256 444.422 256.063 439.407 255.964C437.785 255.932 435.357 256.058 434.691 255.121C431.204 250.218 428.384 252.815 424.181 254.4C419.921 256.008 414.397 257.775 409.64 254.138C409.141 253.757 408.213 253.198 407.927 253.388C402.723 256.847 395.706 255.781 391.1 261.74C387.703 266.135 381.603 268.43 375.45 269.11C373.623 269.312 371.953 270.931 370.212 271.901C371.182 273.295 371.965 274.883 373.162 276.042C375.645 278.443 375.585 282.119 372.719 284.048C370.138 285.784 367.634 287.795 364.795 288.934C362.6 289.814 359.943 289.661 357.484 289.738C353.801 289.854 350.111 289.768 346.377 289.768C347.066 297.717 345.931 299.625 339.102 301.787C335.913 302.796 333 306.248 329.109 303.362C328.867 303.183 327.773 303.697 327.446 304.154C321.967 311.818 316.437 319.451 311.182 327.268C309.71 329.459 309.088 332.22 307.816 335.362C309.874 337.49 312.129 340.597 309.186 344.459C308.374 345.525 307.036 346.234 305.845 346.949C305.321 347.264 304.08 347.012 303.975 347.306C301.76 353.515 294.709 354.098 290.935 358.738C285.283 365.687 278.635 371.824 272.462 378.354C271.486 379.385 270.778 380.669 269.7 382.182C268.776 381.332 268.096 380.271 267.169 379.971C266.131 379.635 263.904 379.801 263.851 380.073C263.102 383.898 262.023 387.823 262.298 391.632C262.511 394.577 263.701 396.992 261.182 399.776C259.706 401.407 259.675 404.345 258.585 408.103C256.417 410.502 252.861 413.447 250.196 418.011C247.345 422.894 247.136 430.173 240.427 432.74C239.681 433.025 239.618 435.063 239.211 436.279C238.812 437.471 238.378 438.65 237.959 439.835C236.629 439.36 234.947 439.232 234.055 438.326C232.819 437.071 232.177 435.23 231.188 432.927C233.197 425.246 235.131 418.22 237.467 411.331C238.859 407.225 240.909 403.345 242.542 399.314C242.621 399.118 241.526 398.447 241.012 397.651C241.368 396.205 241.689 395.104 242.332 393.959C243.096 393.266 243.538 392.615 244.018 391.605C247.131 384.655 250.076 378.002 253.332 371.503C254.94 368.293 257.068 365.335 259.052 362.323C262.656 356.853 266.327 351.427 270.328 345.951C271.788 343.943 272.888 341.967 273.995 339.996C274 340 273.987 339.99 274.334 339.941C275.118 338.925 275.556 337.957 276.13 336.677C280.168 331.571 284.07 326.777 288.32 321.938C289.11 320.927 289.552 319.961 290.139 318.696C293.183 315.595 296.082 312.793 299.347 309.988C301.809 307.326 303.905 304.666 306.287 301.863C307.717 300.481 308.863 299.242 310.375 297.997C312.156 296.985 313.57 295.978 315.123 294.686C316.499 293.262 317.736 292.125 319.326 290.956C323.785 287.282 327.892 283.639 332.298 279.848C338.73 275.133 344.864 270.565 351.378 265.993C355.455 264.354 359.262 262.917 362.796 260.982C364.177 260.227 364.945 258.353 366.16 256.744C366.882 256.328 367.437 256.156 368.197 256.247C369.602 255.674 370.801 254.838 372.244 253.995C372.488 253.988 372.977 253.983 373.354 253.984C377.485 251.652 381.239 249.319 385.024 246.707C386.028 246.281 387.001 246.134 388.378 245.99C398.857 243.107 409.003 240.443 418.984 237.262C426.638 234.823 434.108 231.795 441.602 228.878C443.199 228.256 444.541 226.981 446.333 226.001C447.109 225.995 447.553 225.993 448.241 226.272C452.309 226.046 456.185 225.782 459.937 224.957C462.705 224.348 465.312 223.006 468.001 221.75C468.01 221.509 468.041 221.026 468.437 221.023C469.886 220.995 470.94 220.971 472.332 220.962C473.452 220.657 474.234 220.336 475.431 220.014C477.228 219.993 478.611 219.974 480.358 219.969C481.821 219.678 482.919 219.371 484.46 219.055C487.267 219.02 489.632 218.995 492.465 218.98C505.623 218.988 518.313 218.987 531.428 218.994C533.556 219.01 535.258 219.018 537.205 219.29C538.634 219.689 539.819 219.824 541.44 219.971C543.905 219.996 545.935 220.008 548.182 220.273C549.259 220.668 550.119 220.809 551.356 220.965C552.482 220.995 553.233 221.01 554.198 221.279C555.277 221.668 556.142 221.801 557.431 221.952C562.623 222.934 567.391 223.897 572.159 224.861C572.159 224.861 572.07 224.896 572.189 225.143C572.875 225.595 573.442 225.8 574.009 226.005C574.009 226.005 573.999 226.003 574.036 226.338C574.786 227.056 575.499 227.437 576.212 227.819C576.212 227.819 576.134 227.893 576.2 228.118C576.598 228.491 576.929 228.64 577.26 228.789C577.26 228.789 577.134 228.848 577.211 229.076C577.621 229.456 577.954 229.608 578.287 229.759C578.287 229.759 578.14 229.87 578.217 230.082C578.626 230.45 578.957 230.606 579.288 230.761C579.288 230.761 579.152 230.903 579.218 231.102C579.597 231.486 579.911 231.672 580.226 231.858C580.226 231.858 580.095 231.869 580.099 232.191C580.86 233.358 581.619 234.202 582.377 235.046C582.377 235.046 582.418 235.177 582.279 235.66C582.105 236.427 582.068 236.712 582.126 237.22C582.412 237.719 582.664 237.917 582.985 238.384C583.342 239.82 583.691 240.907 584.045 242.29C584.341 243.064 584.633 243.545 584.938 244.395C584.959 245.504 584.969 246.243 584.815 247.078C584.762 247.455 584.872 247.735 584.981 248.428C584.974 250.21 584.968 251.581 584.711 253.175C584.316 254.263 584.171 255.13 583.775 256.188C583.457 258.146 583.39 259.91 583.322 261.675C583.322 261.675 583.356 261.785 583.023 262.041C582.553 262.76 582.416 263.222 582.279 263.684C582.279 263.684 582.378 263.792 582.042 264.006C581.196 265.23 580.687 266.24 580.177 267.25C580.177 267.25 580.155 267.135 579.923 267.215C579.573 267.639 579.453 267.982 579.333 268.325C579.333 268.325 579.224 267.988 578.988 268.161C578.64 268.677 578.528 269.021 578.417 269.365C578.417 269.365 578.174 269.165 577.975 269.258C577.666 269.693 577.557 270.035 577.447 270.376C577.447 270.376 577.352 270.323 577.063 270.339C576.64 270.692 576.506 271.029 576.373 271.366C576.373 271.366 576.389 271.145 576.071 271.239C575.595 271.664 575.437 271.995 575.28 272.326C575.28 272.326 575.069 272.21 574.895 272.254C574.531 272.611 574.342 272.924 574.153 273.237C574.153 273.237 574.115 273.135 573.836 273.189C572.758 273.924 571.959 274.603 571.159 275.283C571.159 275.283 571.041 275.149 570.71 275.11C564.1 277.23 557.734 278.809 550.833 277.733C550.104 277.345 549.549 277.193 548.581 277.028C546.789 277.001 545.411 276.988 543.771 276.705C542.006 276.297 540.502 276.158 538.599 276.009C537.14 275.984 536.079 275.97 534.776 275.694C533.353 275.3 532.174 275.168 530.542 275.024C527.067 275.003 524.046 274.993 520.721 274.695C514.599 274.597 508.78 274.788 502.515 274.979C499.381 275 496.693 275.019 493.617 275.026C491.811 275.336 490.392 275.659 488.546 275.983C486.407 276.005 484.695 276.026 482.647 276.034C481.529 276.339 480.746 276.656 479.567 276.976C478.116 276.999 477.061 277.021 475.667 277.031C474.549 277.343 473.769 277.667 472.615 277.994C471.49 278.015 470.741 278.033 469.769 278.141C469.274 278.417 469.07 278.66 468.523 278.964C466.738 278.995 465.364 279.023 463.771 279.144C463.279 279.427 463.088 279.677 462.647 279.989C461.877 279.98 461.438 279.972 460.998 279.963Z" fill="#387ABF"/>
<path d="M584.647 429.066C584.116 430.625 583.643 432.672 582.393 433.977C570.54 446.353 558.475 458.528 546.634 470.917C538.949 478.956 531.502 487.225 524.016 495.452C520.988 498.78 518.652 498.896 515.181 495.678C506.656 487.779 498.071 479.945 489.583 472.007C482.093 465 465.745 465.558 457.911 471.784C445.841 481.374 442.752 493.571 449.05 508.53C449.667 509.994 450.827 511.318 451.985 512.453C465.179 525.379 478.305 538.378 491.709 551.085C496.714 555.83 502.116 560.278 507.84 564.11C514.22 568.38 528.31 568.104 534.086 562.401C545.389 551.243 556.662 540.053 567.807 528.738C579.483 516.885 591.067 504.94 602.562 492.912C621.624 472.963 640.608 452.939 659.574 432.899C669.166 422.764 678.603 412.483 688.185 402.341C706.334 383.132 724.525 363.964 742.741 344.819C744.088 343.403 745.773 342.308 747.644 341.397C747.968 342.223 747.949 342.716 747.93 343.209C743.973 346.967 739.84 350.556 736.088 354.508C695.61 397.15 655.186 439.843 614.762 482.535C591.859 506.722 568.996 530.947 546.073 555.116C543.788 557.524 541.376 559.871 538.745 561.883C525.313 572.154 510.799 571.467 498.464 559.899C483.278 545.658 468.175 531.329 453.115 516.956C441.166 505.552 440.799 486.5 452.156 474.163C462.876 462.518 481.427 461.669 493.662 472.566C501.12 479.209 508.182 486.295 515.434 493.169C516.616 494.289 517.861 495.343 519.525 496.827C541.304 474.108 562.825 451.659 584.647 429.066Z" fill="#5581AC"/>
<path d="M685.688 752.268C686.014 751.184 686.413 749.738 687.353 748.894C700.428 737.146 714.486 726.331 726.449 713.552C738.039 701.172 748.417 687.389 757.632 673.126C767.193 658.328 775.724 642.658 782.829 626.543C788.923 612.719 792.628 597.805 796.909 583.232C801.209 568.594 803.518 553.546 803.991 538.284C804.262 529.552 805.434 520.522 803.741 512.122C800.043 493.766 778.68 485.92 762.943 495.202C751.412 502.004 748.519 512.599 748.136 524.262C747.434 545.625 744.244 566.47 736.897 586.529C732.467 598.624 727.998 610.822 722.121 622.241C713.497 638.997 703.143 654.729 690.628 669.03C679.199 682.09 666.566 693.749 652.987 704.458C651.708 705.466 650.157 706.131 648.379 706.784C648.026 706.612 648.047 706.167 648.047 706.167C663.217 693.916 678.062 681.336 690.601 666.261C723.902 626.221 743.034 580.495 746.236 528.328C746.481 524.339 746.56 520.327 747.041 516.365C749.009 500.138 763.272 488.186 779.297 489.203C794.86 490.19 807.146 503.46 807.052 519.749C806.826 558.923 798.382 596.308 782.522 632.128C760.994 680.748 728.827 720.723 685.688 752.268Z" fill="#5481AD"/>
<path d="M608.058 662.059C589.902 675.018 569.693 683.509 547.998 687.983C481.767 701.638 424.58 683.531 379.411 633.989C329.104 578.811 319.287 514.429 345.219 444.767C350.543 430.464 358.319 417.077 368.697 405.155C369.041 405.038 369.159 405.152 369.104 405.503C368.874 406.489 368.869 407.254 368.497 407.74C358.24 421.138 350.644 435.941 344.608 451.667C338.686 467.097 335.018 483.103 334.261 499.449C333.636 512.962 334.899 526.617 336.054 540.147C337.817 560.798 345.175 579.869 355.375 597.615C361.775 608.748 369.858 618.961 377.648 629.236C386.646 641.105 398.122 650.494 410.215 658.992C422.691 667.759 436.172 674.6 450.542 680.05C463.85 685.098 477.516 688.683 491.417 689.667C511.411 691.081 531.537 690.731 551.254 685.475C568.982 680.749 585.822 674.133 601.42 664.404C603.346 663.203 605.69 662.673 607.895 661.888C607.949 661.946 608.058 662.059 608.058 662.059Z" fill="#5380AB"/>
<path d="M287.972 321.983C284.071 326.777 280.169 331.571 275.843 336.82C274.941 338.18 274.465 339.085 273.988 339.99C273.988 339.99 274 340 273.692 340.143C272.246 342.185 271.108 344.084 269.97 345.983C266.327 351.427 262.656 356.852 259.053 362.323C257.069 365.335 254.941 368.293 253.333 371.503C250.077 378.001 247.131 384.654 243.701 391.655C242.899 392.711 242.455 393.357 242.011 394.003C241.69 395.104 241.369 396.205 240.733 397.861C236.277 410.611 232.135 422.806 227.993 435.001C225.321 448.424 222.043 461.762 220.15 475.294C218.345 488.204 217.321 501.306 217.131 514.341C216.773 538.926 219.986 563.287 226.416 586.942C230.696 602.691 236.618 618.136 243.289 633.053C249.878 647.785 257.428 662.269 266.201 675.796C276.826 692.18 288.876 707.69 303.415 721.012C304.799 722.279 305.653 724.124 306.593 726.055C295.181 713.745 282.747 701.935 272.877 688.274C224.76 621.676 206.46 547.442 219.073 466.106C227.625 410.954 250.467 362.177 287.379 319.827C287.777 319.774 288.016 320.012 288.007 320.34C287.989 321.107 287.981 321.545 287.972 321.983Z" fill="#5481AD"/>
<path d="M748.107 343.535C747.949 342.715 747.968 342.223 747.987 341.36C751.564 338.965 751.633 341.473 752.014 343.96C753.914 356.364 755.505 368.835 757.971 381.129C760.397 393.226 769.298 398.996 782.333 397.999C791.94 397.265 800.255 388.424 800.99 377.842C802.091 361.985 803.023 346.116 804.014 330.252C805.026 314.054 806.002 297.854 807.036 281.658C807.648 272.078 808.509 262.51 808.914 252.921C809.072 249.158 808.617 245.288 807.859 241.585C806.818 236.494 798.824 233.148 791.516 234.055C774.795 236.13 758.047 237.989 741.321 240.035C717.215 242.983 693.115 245.982 669.022 249.036C661.057 250.046 653.405 258.758 653.011 267.087C652.885 269.746 652.977 272.416 652.635 275.542C651.876 276.001 651.45 276 651.025 276C648.02 261.433 657.489 247.77 673.285 246.116C708.207 242.461 743.055 238.093 777.932 234.001C782.725 233.438 787.495 232.631 792.299 232.21C804.879 231.109 811.38 237.009 810.833 249.594C809.972 269.382 808.79 289.158 807.583 308.929C806.173 332.02 804.731 355.112 803.02 378.183C802.236 388.759 795.639 396.497 785.987 399.282C775.908 402.19 765.508 399.01 759.487 390.246C757.156 386.855 756.037 382.395 755.208 378.253C753.164 368.031 751.639 357.706 749.814 347.439C749.593 346.195 748.809 345.052 748.107 343.535Z" fill="#5381AC"/>
<path d="M552.964 341.526C564.57 346.494 570.768 360.214 567.513 373.732C563.851 388.945 550.57 398.684 534.965 397.165C517.519 395.467 500.038 393.757 482.818 398.226C434.781 410.693 404.657 441.429 394.265 489.704C381.83 547.467 415.018 605.174 470.587 625.45C471.836 625.906 473.078 626.383 474.536 627.197C474.552 627.771 474.309 627.925 473.621 628.002C471.787 627.648 470.27 627.494 468.93 626.924C448.044 618.034 429.87 605.796 415.698 587.489C401.123 568.66 392.511 547.608 390.249 524.282C388.349 504.678 391.055 485.387 398.938 466.94C409.179 442.976 425.045 423.935 447.305 410.504C464.883 399.898 483.888 393.545 504.733 394.007C517.612 394.292 530.495 395.053 543.367 394.892C553.418 394.767 565.104 381.701 566.122 371.678C567.378 359.307 563.054 349.943 553.001 342.603C552.985 342.005 552.975 341.766 552.964 341.526Z" fill="#5582AC"/>
<path d="M647.726 706.274C648.047 706.167 648.026 706.612 648.029 706.835C643.517 710.446 639.374 714.563 634.418 717.085C619.249 724.805 604.262 733.352 588.267 738.85C572.432 744.292 555.547 746.93 538.95 749.805C529.052 751.52 518.771 752.29 508.753 751.757C494.426 750.994 480 749.558 465.953 746.733C451.443 743.814 436.963 739.871 423.146 734.603C404.549 727.514 386.817 718.212 371.261 705.574C359.557 696.065 347.846 686.376 337.4 675.549C323.459 661.098 311.72 644.77 302.532 626.774C302.099 625.926 302.109 624.851 301.91 623.356C301.908 622.83 301.922 622.531 301.922 622.531C311.291 639.48 321.919 655.588 334.878 670.012C371.419 710.682 416.406 736.443 470.402 745.993C534.89 757.4 593.674 743.136 647.726 706.274Z" fill="#5481AD"/>
<path d="M301.835 622.151C301.922 622.531 301.909 622.83 301.865 622.974C299.365 619.3 296.069 615.778 294.599 611.612C288.894 595.441 282.959 579.274 278.707 562.696C275.777 551.272 274.891 539.209 274.164 527.366C273.427 515.337 273.057 503.132 274.265 491.18C275.587 478.097 278.339 465.077 281.515 452.289C284.333 440.945 287.791 429.613 292.42 418.905C297.398 407.391 303.178 396.002 310.224 385.66C319.237 372.43 329.53 360.017 339.888 347.774C351.512 334.033 365.772 323.091 380.647 313.141C388.108 308.151 396.527 304.593 404.74 300.608C387.615 310.766 370.743 321.356 355.807 334.826C307.829 378.091 281.079 431.876 275.844 496.235C272.239 540.553 281.825 582.255 301.835 622.151Z" fill="#5481AB"/>
<path d="M324.07 742.352C326.597 743.521 329.521 744.67 331.91 746.513C352.091 762.075 373.789 775.12 397.247 785.014C417.575 793.587 438.627 800.208 460.422 803.801C483.047 807.53 505.948 809.472 528.841 807.826C551.954 806.164 574.771 802.176 596.99 795.178C616.021 789.185 634.143 781.153 651.764 771.884C652.868 771.304 654.281 771.31 655.97 771.088C641.235 778.28 626.498 786.553 610.848 792.37C556.117 812.714 500.007 815.28 443.331 802.003C399.063 791.633 359.266 771.783 324.07 742.352Z" fill="#5481AD"/>
<path d="M384.897 386.907C401.266 369.78 420.975 357.708 442.699 348.669C476.487 334.61 511.355 332.506 547.013 339.252C548.788 339.587 550.477 340.378 552.274 341.329C552.343 341.702 551.983 342.022 551.564 342.013C541.838 340.672 532.567 338.636 523.216 338.145C498.065 336.825 473.204 338.572 449.441 348.017C427.436 356.763 406.831 367.779 389.773 384.618C388.571 385.805 386.706 386.321 385.086 387.088C385.023 387.027 384.897 386.907 384.897 386.907Z" fill="#5380AB"/>
<path d="M648.438 508.409C650.987 505.559 653.674 502.82 656.062 499.842C666.382 486.973 684.595 495.706 686.884 507.761C688.347 515.466 688.529 523.665 687.782 531.498C684.535 565.521 671.99 595.941 650.264 622.929C649.442 623.026 649.227 623.011 649.045 622.648C651.515 618.979 654.093 615.75 656.363 612.318C666.446 597.073 674.511 580.799 679.696 563.272C684.723 546.278 687.638 528.897 685.951 511.069C685.247 503.628 680.173 499.256 673.814 496.551C668.09 494.116 661.657 496.37 657.208 501.233C654.672 504.004 651.759 506.431 648.876 508.857C648.736 508.701 648.438 508.409 648.438 508.409Z" fill="#5581AD"/>
<path d="M696.221 311.742C695.903 313.018 695.613 314.72 694.625 315.759C685.04 325.845 675.308 335.792 665.674 345.833C651.079 361.044 636.478 376.251 621.979 391.553C613.999 399.976 606.253 408.619 598.317 417.084C597.248 418.224 595.688 418.902 593.991 419.68C601.659 410.948 609.61 402.255 617.735 393.726C643.764 366.405 669.857 339.145 696.221 311.742Z" fill="#5581AC"/>
<path d="M474.021 628.008C474.309 627.926 474.551 627.771 474.858 627.356C522.749 639.741 563.905 628.562 598.198 592.793C599.118 591.834 599.994 590.831 601.303 589.799C601.717 589.749 602.015 590.012 601.974 590.355C596.069 596.514 590.612 602.83 584.252 608.041C571.972 618.103 558.103 625.654 542.728 629.775C526.27 634.187 509.422 635.601 492.501 632.869C486.242 631.859 480.175 629.663 474.021 628.008Z" fill="#5581AD"/>
<path d="M601.573 589.611C614.75 572.815 623.129 553.909 627.932 533.168C628.874 529.099 632.2 525.363 635.054 522.008C639.028 517.337 643.594 513.169 648.172 508.597C648.438 508.408 648.737 508.701 648.835 509.199C644.872 514.043 640.445 518.11 636.854 522.816C633.488 527.225 629.608 531.986 628.413 537.16C625.444 550.018 621.331 562.331 614.549 573.572C611.011 579.438 606.233 584.556 602.015 590.011C602.015 590.011 601.717 589.748 601.573 589.611Z" fill="#5581AD"/>
<path d="M446.001 226.006C444.541 226.98 443.199 228.255 441.602 228.877C434.109 231.794 426.638 234.822 418.984 237.261C409.003 240.442 398.857 243.106 388.384 245.594C387.965 244.668 387.944 244.14 387.923 243.612C387.923 243.612 388.112 243.533 388.614 243.675C393.63 241.717 398.144 239.617 402.658 237.516C402.658 237.516 402.732 237.965 403.081 237.873C405.646 236.739 407.863 235.697 410.08 234.655C410.08 234.655 410.193 234.627 410.511 234.718C411.229 234.519 411.63 234.229 412.031 233.94C412.451 233.696 412.871 233.452 413.767 233.377C414.447 233.775 414.701 233.922 415.301 233.97C416.079 233.645 416.558 233.335 417.403 233.016C419.201 232.245 420.633 231.484 422.066 230.723C422.066 230.723 422.375 230.402 422.674 230.657C423.652 230.931 424.33 230.949 425.304 230.955C426.069 230.631 426.538 230.319 427.382 230.002C428.51 229.978 429.262 229.959 430.331 229.929C431.445 229.291 432.241 228.661 433.419 228.019C435.535 227.665 437.269 227.323 439.301 226.968C440.078 226.647 440.558 226.341 441.451 226.028C443.243 226.016 444.622 226.011 446.001 226.006Z" fill="#3C7ABC"/>
<path d="M650.973 276.383C651.45 276.001 651.875 276.002 652.618 276.003C655.992 287.773 664.763 291.655 675.737 293.092C685.514 294.372 695.211 296.283 704.915 298.07C705.979 298.266 706.857 299.475 707.822 300.215C707.043 301.091 706.265 301.968 705.104 302.798C705.019 301.996 705.316 301.241 705.841 299.902C699.718 298.904 693.766 297.927 687.812 296.967C681.913 296.016 675.937 295.404 670.127 294.068C660.645 291.886 653.517 286.756 650.973 276.383Z" fill="#5481AD"/>
<path d="M350.998 265.997C344.864 270.565 338.731 275.133 331.946 279.883C329.808 280.679 328.321 281.293 326.834 281.908C334.081 276.275 341.31 270.62 348.588 265.028C350.028 263.923 351.653 263.059 353.58 262.024C353.967 261.965 354.097 262.101 354.021 262.411C352.963 263.813 351.981 264.905 350.998 265.997Z" fill="#5280AB"/>
<path d="M635.157 639.157C632.527 642.042 630.184 645.273 627.206 647.737C621.231 652.681 614.909 657.206 608.394 661.982C608.058 662.06 607.949 661.946 607.989 661.564C613.345 656.795 618.666 652.412 623.976 648.017C627.633 644.989 631.275 641.942 634.981 638.969C635.038 639.034 635.157 639.157 635.157 639.157Z" fill="#5380AB"/>
<path d="M531.002 218.984C518.313 218.986 505.623 218.988 492.478 218.681C492.033 218.175 492.045 217.976 492.056 217.776C497.078 217.518 502.1 217.26 507.886 217.334C512.416 217.507 516.183 217.346 519.949 217.186C523.342 217.26 526.734 217.335 530.559 217.791C530.999 218.443 531.003 218.714 531.002 218.984Z" fill="#5280AB"/>
<path d="M368.981 404.981C374.048 399.014 379.173 393.105 384.598 387.051C384.898 386.906 385.024 387.027 385.033 387.436C379.749 393.614 374.454 399.383 369.159 405.152C369.159 405.152 369.041 405.038 368.981 404.981Z" fill="#5380AB"/>
<path d="M372.977 253.982C372.977 253.982 372.489 253.988 371.896 253.993C370.199 254.66 369.096 255.322 367.992 255.984C367.437 256.155 366.883 256.327 365.8 256.782C363.229 257.763 361.187 258.459 359.092 259.099C359.039 259.043 358.934 258.93 358.934 258.93C365.731 254.981 372.528 251.032 379.719 247.112C380.113 247.141 380.185 247.22 380.076 247.537C377.638 249.896 375.307 251.939 372.977 253.982Z" fill="#5280AB"/>
<path d="M446.334 226.001C444.623 226.011 443.244 226.016 441.15 226.036C439.958 226.361 439.481 226.672 439.004 226.982C437.27 227.323 435.536 227.665 433.097 228.033C431.6 228.686 430.807 229.312 430.014 229.939C429.262 229.959 428.51 229.979 427.087 230.02C425.947 230.349 425.478 230.658 425.009 230.967C424.331 230.949 423.652 230.931 422.896 230.63C432.626 227.802 442.434 225.257 452.62 222.958C452.997 223.457 452.996 223.71 452.742 223.976C452.32 223.995 452.15 223.999 451.648 224.004C450.546 224.326 449.777 224.648 448.788 225.084C448.291 225.399 448.1 225.664 447.997 225.991C447.553 225.993 447.11 225.994 446.334 226.001Z" fill="#5481AB"/>
<path d="M306.709 726.862C307.221 726.509 308.133 726.146 308.433 726.43C313.645 731.365 318.783 736.379 323.945 741.729C318.244 737.106 312.534 732.13 306.709 726.862Z" fill="#5481AD"/>
<path d="M551.007 277.97C557.735 278.809 564.1 277.229 570.789 275.151C565.369 279.772 558.774 280.508 551.379 278.773C551.001 278.406 551.007 277.97 551.007 277.97Z" fill="#5481AB"/>
<path d="M463.992 279.05C465.365 279.022 466.739 278.995 468.753 278.88C469.681 278.617 469.881 278.369 469.992 278.05C470.741 278.032 471.491 278.014 472.819 278.078C473.659 278.316 473.85 278.534 473.971 278.813C467.178 280.265 460.385 281.717 453.294 282.85C452.998 282.359 453.001 282.186 453.003 282.013C455.409 281.34 457.815 280.667 460.61 279.978C461.439 279.971 461.878 279.979 462.868 279.892C463.693 279.613 463.884 279.364 463.992 279.05Z" fill="#5481AB"/>
<path d="M326.616 281.958C328.321 281.293 329.808 280.678 331.647 280.029C327.892 283.638 323.785 287.282 319.305 290.539C318.756 289.627 318.581 289.1 318.405 288.574C318.405 288.574 318.511 288.563 318.86 288.594C319.345 288.29 319.481 287.956 319.618 287.622C319.618 287.622 319.728 287.596 320.036 287.691C322.234 285.935 324.123 284.084 326.012 282.233C326.012 282.233 326.398 282.009 326.616 281.958Z" fill="#3C7ABC"/>
<path d="M429.337 290.263C435.462 286.109 442.649 283.858 450.755 283.161C444.036 285.581 436.891 287.907 429.337 290.263Z" fill="#5481AB"/>
<path d="M298.982 309.991C296.083 312.793 293.184 315.595 289.892 318.698C289.5 318.999 289.006 319.009 288.861 318.872C288.716 318.735 288.403 318.486 288.403 318.486C291.58 314.924 294.757 311.362 298.344 307.771C298.753 307.741 299.018 308.014 299.009 308.343C298.994 309.112 298.988 309.551 298.982 309.991Z" fill="#5481AD"/>
<path d="M571.974 224.561C567.391 223.897 562.623 222.933 557.429 221.707C556.999 221.117 556.999 220.79 557.003 220.462C561.932 221.729 566.861 222.995 571.974 224.561Z" fill="#5481AB"/>
<path d="M593.266 419.766C590.917 422.74 588.27 425.836 585.271 428.943C587.603 425.931 590.285 422.91 593.266 419.766Z" fill="#5581AC"/>
<path d="M414.553 296.286C418.715 294.251 423.259 292.182 428.231 290.192C424.084 292.265 419.51 294.258 414.553 296.286Z" fill="#5481AB"/>
<path d="M318.108 288.674C318.581 289.1 318.757 289.627 318.953 290.57C317.737 292.124 316.5 293.262 314.78 294.722C313.203 295.369 312.108 295.693 310.872 295.88C310.73 295.744 310.43 295.49 310.43 295.49C312.89 293.251 315.349 291.013 318.108 288.674Z" fill="#5481AD"/>
<path d="M521.024 274.983C524.046 274.993 527.067 275.003 530.543 275.255C531.001 275.805 530.999 276.113 530.99 276.42C525.976 276.259 520.962 276.097 515.805 275.61C517.449 275.184 519.237 275.084 521.024 274.983Z" fill="#5481AB"/>
<path d="M520.722 274.695C519.237 275.083 517.449 275.183 515.371 275.516C513.317 275.802 511.553 275.854 509.063 275.594C506.546 275.18 504.753 275.079 502.961 274.977C508.78 274.787 514.599 274.597 520.722 274.695Z" fill="#5280AB"/>
<path d="M402.277 237.525C398.144 239.617 393.631 241.718 388.706 243.723C392.829 241.596 397.362 239.565 402.277 237.525Z" fill="#5481AB"/>
<path d="M482.983 276.047C484.695 276.026 486.407 276.005 488.748 276.064C489.639 276.29 489.834 276.499 489.961 276.77C485.576 277.363 481.191 277.956 476.403 278.257C476.002 277.659 476.003 277.351 476.005 277.043C477.061 277.021 478.116 276.999 479.906 276.983C481.422 276.675 482.203 276.361 482.983 276.047Z" fill="#5481AB"/>
<path d="M553.985 221.024C553.234 221.01 552.482 220.995 551.145 220.712C549.695 220.301 548.83 220.161 547.966 220.02C545.935 220.008 543.905 219.996 541.438 219.73C540.998 219.155 540.999 218.832 541.005 218.51C545.41 218.972 549.814 219.435 554.479 220.222C554.533 220.777 554.281 220.936 553.985 221.024Z" fill="#5481AB"/>
<path d="M502.515 274.979C504.754 275.079 506.546 275.18 508.63 275.514C504.233 276.023 499.545 276.3 494.429 276.253C494.002 275.631 494.003 275.335 494.005 275.038C496.693 275.019 499.381 274.999 502.515 274.979Z" fill="#5481AB"/>
<path d="M584.978 246.982C584.969 246.243 584.959 245.503 585.132 244.385C585.314 244.006 585.702 244.001 585.702 244.001C585.783 247.07 585.864 250.139 585.651 253.448C585.165 253.475 585.033 253.23 584.961 252.952C584.968 251.581 584.974 250.21 584.985 248.169C584.986 247.326 584.982 247.154 584.978 246.982Z" fill="#5481AB"/>
<path d="M704.442 302.869C703.038 304.806 701.336 306.877 699.28 308.965C700.666 306.989 702.405 304.996 704.442 302.869Z" fill="#5581AC"/>
<path d="M471.994 220.946C470.94 220.97 469.886 220.995 468.138 221.031C466.967 221.346 466.491 221.649 465.614 221.963C464.144 221.985 463.075 221.995 462.004 221.779C462.002 221.552 462 221.1 462 221.1C465.076 220.542 468.151 219.983 471.613 219.724C471.998 220.33 471.996 220.638 471.994 220.946Z" fill="#5481AB"/>
<path d="M325.69 282.285C324.123 284.083 322.234 285.934 319.987 287.663C321.542 285.806 323.455 284.072 325.69 282.285Z" fill="#5481AD"/>
<path d="M387.551 243.667C387.944 244.14 387.966 244.668 387.981 245.591C387.002 246.133 386.029 246.28 384.621 246.71C382.853 247.068 381.519 247.144 380.185 247.22C380.185 247.22 380.113 247.141 380.08 247.099C382.424 245.945 384.801 244.834 387.551 243.667Z" fill="#5481AB"/>
<path d="M665.345 765.961C667.266 764.415 669.532 762.818 672.189 761.172C670.283 762.719 667.987 764.314 665.345 765.961Z" fill="#5481AD"/>
<path d="M310.009 298.003C308.863 299.242 307.718 300.481 306.039 301.861C305.505 302.002 305.008 302.011 304.856 301.87C304.705 301.73 304.378 301.478 304.378 301.478C305.896 299.901 307.414 298.325 309.338 296.734C309.743 296.719 310.015 297.012 310.01 297.26C310.005 297.507 310.009 298.003 310.009 298.003Z" fill="#5481AD"/>
<path d="M531.428 218.993C531.003 218.714 531 218.443 530.982 217.97C533.369 217.861 535.766 217.953 538.356 218.355C538.021 218.784 537.491 218.905 536.961 219.026C535.259 219.018 533.556 219.009 531.428 218.993Z" fill="#5481AB"/>
<path d="M491.726 217.652C492.045 217.976 492.033 218.175 492.009 218.672C489.632 218.995 487.267 219.019 484.453 218.844C484.004 218.644 483.999 218.225 483.999 218.225C486.464 217.993 488.93 217.76 491.726 217.652Z" fill="#5481AB"/>
<path d="M421.66 230.742C420.634 231.484 419.201 232.245 417.101 233.027C415.957 233.36 415.48 233.673 415.003 233.986C414.701 233.923 414.448 233.776 414.134 233.352C416.434 232.358 418.843 231.56 421.66 230.742Z" fill="#5481AB"/>
<path d="M519.5 217.097C516.183 217.347 512.416 217.507 508.347 217.404C511.713 217.096 515.382 217.052 519.5 217.097Z" fill="#5481AB"/>
<path d="M409.685 234.692C407.863 235.698 405.646 236.74 403.057 237.648C404.886 236.586 407.089 235.657 409.685 234.692Z" fill="#5481AB"/>
<path d="M673.316 760.983C674.578 759.725 676.183 758.421 678.185 757.157C676.941 758.444 675.3 759.69 673.316 760.983Z" fill="#5481AD"/>
<path d="M583.601 261.46C583.39 259.91 583.458 258.146 583.969 256.191C584.668 255.998 584.926 256.002 585.183 256.013C584.748 257.757 584.314 259.501 583.601 261.46Z" fill="#5481AB"/>
<path d="M544.032 276.975C545.411 276.988 546.789 277.001 548.583 277.278C548.997 277.877 548.997 278.212 548.997 278.546C547.251 278.371 545.504 278.196 543.52 277.717C543.492 277.199 543.742 277.052 544.032 276.975Z" fill="#5481AB"/>
<path d="M479.994 219.953C478.611 219.973 477.228 219.992 475.23 219.931C474.355 219.704 474.162 219.495 474.036 219.224C475.778 218.998 477.521 218.772 479.63 218.846C479.997 219.415 479.996 219.684 479.994 219.953Z" fill="#5481AB"/>
<path d="M584.041 241.995C583.692 240.908 583.342 239.82 582.988 238.135C582.983 237.536 582.962 237.038 583.047 236.956C583.132 236.874 583.304 236.713 583.304 236.713C583.946 238.264 584.588 239.816 585.008 241.683C584.538 241.998 584.289 241.997 584.041 241.995Z" fill="#5481AB"/>
<path d="M493.617 275.025C494.003 275.335 494.002 275.631 494.007 276.15C492.934 276.544 491.857 276.716 490.37 276.828C489.834 276.498 489.639 276.29 489.176 276.063C490.393 275.659 491.811 275.336 493.617 275.025Z" fill="#5280AB"/>
<path d="M406.268 300.215C407.792 299.188 409.631 298.143 411.825 297.14C410.314 298.187 408.448 299.191 406.268 300.215Z" fill="#5481AB"/>
<path d="M353.901 261.897C355.315 260.902 356.794 259.975 358.603 258.989C358.933 258.931 359.039 259.043 358.982 259.424C357.316 260.57 355.706 261.336 354.096 262.102C354.096 262.102 353.966 261.965 353.901 261.897Z" fill="#5280AB"/>
<path d="M543.772 276.704C543.742 277.052 543.492 277.198 543.161 277.595C541.949 277.679 540.858 277.58 539.388 277.114C539.001 276.504 538.998 276.261 538.998 276.019C540.502 276.157 542.007 276.296 543.772 276.704Z" fill="#5280AB"/>
<path d="M531.369 276.573C530.999 276.112 531.001 275.804 530.996 275.266C532.174 275.167 533.354 275.3 534.768 275.904C535.003 276.376 534.998 276.796 534.998 276.796C533.914 276.772 532.831 276.749 531.369 276.573Z" fill="#5280AB"/>
<path d="M480.359 219.969C479.997 219.685 479.998 219.416 479.991 218.945C481.051 218.532 482.117 218.32 483.591 218.167C483.999 218.225 484.004 218.644 484.011 218.855C482.92 219.371 481.821 219.678 480.359 219.969Z" fill="#5280AB"/>
<path d="M657.292 770.887C658.152 769.986 659.343 769.057 660.896 768.192C660.046 769.124 658.835 769.991 657.292 770.887Z" fill="#5481AD"/>
<path d="M646.633 627.521C645.727 628.687 644.82 629.852 643.538 631.09C643.162 631.162 642.933 630.948 642.958 630.591C643.982 629.148 644.981 628.062 646.137 627.12C646.293 627.264 646.633 627.521 646.633 627.521Z" fill="#5380AB"/>
<path d="M679.28 756.935C679.866 756.072 680.762 755.148 682.011 754.362C681.439 755.292 680.515 756.082 679.28 756.935Z" fill="#5481AD"/>
<path d="M535.327 276.897C534.998 276.795 535.003 276.375 535.011 276.165C536.08 275.969 537.141 275.983 538.599 276.008C538.997 276.261 539.001 276.504 539.019 276.928C537.905 277.072 536.781 277.035 535.327 276.897Z" fill="#5481AB"/>
<path d="M537.205 219.29C537.49 218.905 538.02 218.785 538.739 218.466C539.401 218.258 539.873 218.247 540.675 218.373C540.999 218.832 540.998 219.154 541.003 219.718C539.82 219.824 538.635 219.688 537.205 219.29Z" fill="#5280AB"/>
<path d="M461.612 221.067C461.999 221.1 462.002 221.553 461.794 222.038C460.722 222.666 459.858 222.809 458.995 222.739C459.001 222.243 459.01 221.96 459.023 221.677C459.757 221.463 460.491 221.249 461.612 221.067Z" fill="#5280AB"/>
<path d="M661.51 768.257C662.22 767.528 663.257 766.755 664.655 765.992C663.957 766.739 662.896 767.476 661.51 768.257Z" fill="#5481AD"/>
<path d="M458.692 221.614C459.01 221.959 459.002 222.243 458.625 222.756C457.51 222.998 456.768 223.009 455.829 222.945C455.376 222.734 455.182 222.536 455.05 222.277C456.154 222.035 457.257 221.794 458.692 221.614Z" fill="#5481AB"/>
<path d="M473.684 219.184C474.162 219.496 474.355 219.705 474.815 219.933C474.234 220.336 473.452 220.657 472.332 220.962C471.996 220.639 471.998 220.33 471.996 219.791C472.439 219.421 472.885 219.282 473.684 219.184Z" fill="#5280AB"/>
<path d="M582.324 234.701C581.619 234.202 580.861 233.358 580.149 232.149C580.888 232.642 581.58 233.499 582.324 234.701Z" fill="#5481AB"/>
<path d="M554.199 221.278C554.282 220.935 554.534 220.776 554.857 220.353C555.437 220.166 555.9 220.171 556.684 220.319C556.999 220.789 556.999 221.117 557.006 221.689C556.143 221.8 555.278 221.667 554.199 221.278Z" fill="#5280AB"/>
<path d="M454.683 222.264C455.181 222.537 455.375 222.734 455.613 223.201C454.727 223.675 453.861 223.819 452.995 223.963C452.996 223.711 452.996 223.458 452.992 223.016C453.43 222.634 453.873 222.442 454.683 222.264Z" fill="#5280AB"/>
<path d="M475.668 277.031C476.004 277.351 476.002 277.659 476.004 278.196C475.564 278.578 475.121 278.729 474.324 278.847C473.85 278.534 473.659 278.317 473.193 278.077C473.77 277.667 474.55 277.343 475.668 277.031Z" fill="#5280AB"/>
<path d="M585.382 255.702C584.926 256.002 584.668 255.998 584.218 255.998C584.171 255.13 584.317 254.263 584.712 253.175C585.033 253.23 585.165 253.476 585.526 253.814C585.656 254.423 585.618 254.907 585.382 255.702Z" fill="#5280AB"/>
<path d="M571.486 275.241C571.959 274.603 572.758 273.923 573.89 273.197C573.42 273.834 572.617 274.517 571.486 275.241Z" fill="#5481AB"/>
<path d="M580.492 267.112C580.687 266.24 581.196 265.23 582.027 264.078C581.834 264.949 581.321 265.962 580.492 267.112Z" fill="#5481AB"/>
<path d="M576.11 227.532C575.499 227.437 574.786 227.056 574.033 226.334C574.665 226.411 575.336 226.829 576.11 227.532Z" fill="#5481AB"/>
<path d="M584.045 242.289C584.289 241.996 584.537 241.998 584.972 241.993C585.352 242.42 585.546 242.851 585.721 243.641C585.703 244.001 585.314 244.006 585.12 244.015C584.633 243.544 584.341 243.064 584.045 242.289Z" fill="#5280AB"/>
<path d="M549.311 278.69C548.997 278.211 548.997 277.877 548.996 277.292C549.549 277.193 550.104 277.344 550.833 277.733C551.006 277.97 551.001 278.406 551 278.625C550.541 278.839 550.084 278.836 549.311 278.69Z" fill="#5280AB"/>
<path d="M682.661 754.39C682.751 753.995 683.127 753.549 683.843 753.137C683.771 753.56 683.359 753.949 682.661 754.39Z" fill="#5481AD"/>
<path d="M573.855 225.746C573.442 225.799 572.875 225.594 572.196 225.095C572.623 225.029 573.162 225.258 573.855 225.746Z" fill="#5481AB"/>
<path d="M697.715 310.051C697.74 310.501 697.493 311.067 696.914 311.643C696.869 311.157 697.156 310.662 697.715 310.051Z" fill="#5581AC"/>
<path d="M411.779 233.894C411.631 234.23 411.23 234.519 410.566 234.735C410.711 234.39 411.119 234.119 411.779 233.894Z" fill="#5481AB"/>
<path d="M412.42 297.243C412.592 296.874 413.075 296.501 413.89 296.199C413.725 296.593 413.227 296.916 412.42 297.243Z" fill="#5481AB"/>
<path d="M452.682 282.039C453 282.186 452.997 282.359 452.989 282.791C452.593 283.179 452.204 283.307 451.509 283.402C451.589 282.934 451.976 282.499 452.682 282.039Z" fill="#5280AB"/>
<path d="M642.472 632.465C642.2 632.658 641.927 632.852 641.348 633.044C641.041 633.043 640.927 632.926 641.057 632.723C641.395 632.263 641.654 632.078 642.09 632.09C642.215 632.217 642.472 632.465 642.472 632.465Z" fill="#5380AB"/>
<path d="M641.098 633.101C641.087 633.504 640.908 633.776 640.331 634.01C640.043 634.045 639.929 633.928 640.055 633.724C640.383 633.264 640.632 633.066 640.927 632.927C640.927 632.927 641.041 633.043 641.098 633.101Z" fill="#5380AB"/>
<path d="M640.1 634.103C640.088 634.506 639.91 634.777 639.332 635.011C639.044 635.045 638.93 634.929 639.056 634.725C639.384 634.264 639.633 634.067 639.928 633.928C639.928 633.928 640.043 634.044 640.1 634.103Z" fill="#5380AB"/>
<path d="M639.101 635.104C639.089 635.507 638.91 635.779 638.333 636.012C638.044 636.047 637.931 635.931 638.057 635.726C638.385 635.266 638.634 635.068 638.93 634.93C638.93 634.93 639.044 635.046 639.101 635.104Z" fill="#5380AB"/>
<path d="M638.101 636.105C638.09 636.508 637.911 636.779 637.333 637.012C637.044 637.046 636.931 636.931 637.057 636.726C637.386 636.266 637.635 636.069 637.931 635.931C637.931 635.931 638.045 636.047 638.101 636.105Z" fill="#5380AB"/>
<path d="M637.101 637.104C637.089 637.507 636.91 637.779 636.331 638.011C636.043 638.044 635.93 637.929 636.056 637.724C636.385 637.265 636.635 637.068 636.931 636.93C636.931 636.93 637.044 637.046 637.101 637.104Z" fill="#5380AB"/>
<path d="M636.099 638.103C636.088 638.505 635.908 638.775 635.387 639.064C635.157 639.157 635.038 639.034 635.112 638.771C635.389 638.258 635.638 638.065 635.93 637.929C635.93 637.929 636.043 638.044 636.099 638.103Z" fill="#5380AB"/>
<path d="M319.38 287.686C319.481 287.956 319.345 288.29 318.911 288.579C318.648 288.177 318.824 287.915 319.38 287.686Z" fill="#5481AD"/>
<path d="M647.534 626.498C647.42 626.793 647.242 627.043 646.817 627.385C646.633 627.521 646.293 627.265 646.248 626.905C646.401 626.277 646.658 626.086 647.11 626.108C647.247 626.243 647.534 626.498 647.534 626.498Z" fill="#5380AB"/>
<path d="M684.391 753.162C684.323 752.908 684.524 752.603 685.015 752.29C685.089 752.559 684.875 752.835 684.391 753.162Z" fill="#5481AD"/>
<path d="M582.585 263.482C582.416 263.221 582.553 262.759 583.008 262.097C583.181 262.357 583.036 262.818 582.585 263.482Z" fill="#5481AB"/>
<path d="M579.586 268.232C579.453 267.982 579.573 267.639 579.979 267.235C580.123 267.496 579.981 267.818 579.586 268.232Z" fill="#5481AB"/>
<path d="M574.423 273.184C574.343 272.923 574.532 272.61 575.011 272.284C575.099 272.558 574.896 272.844 574.423 273.184Z" fill="#5481AB"/>
<path d="M575.538 272.269C575.437 271.995 575.594 271.664 576.05 271.346C576.164 271.643 575.98 271.927 575.538 272.269Z" fill="#5481AB"/>
<path d="M576.618 271.307C576.507 271.028 576.641 270.691 577.074 270.392C577.204 270.702 577.033 270.976 576.618 271.307Z" fill="#5481AB"/>
<path d="M577.684 270.308C577.557 270.035 577.666 269.693 578.077 269.378C578.373 269.763 578.22 270.042 577.684 270.308Z" fill="#5481AB"/>
<path d="M577.178 228.524C576.929 228.64 576.598 228.491 576.197 228.064C576.451 227.943 576.773 228.101 577.178 228.524Z" fill="#5481AB"/>
<path d="M578.66 269.285C578.528 269.02 578.64 268.677 579.051 268.327C579.201 268.616 579.052 268.911 578.66 269.285Z" fill="#5481AB"/>
<path d="M580.169 231.587C579.912 231.672 579.598 231.486 579.258 231.012C579.526 230.921 579.819 231.118 580.169 231.587Z" fill="#5481AB"/>
<path d="M298.629 307.597C298.643 307.156 298.832 306.895 299.403 306.693C299.734 306.716 300.01 307.01 299.899 307.226C299.591 307.712 299.333 307.902 299.018 308.013C299.018 308.013 298.753 307.741 298.629 307.597Z" fill="#5481AD"/>
<path d="M579.22 230.496C578.957 230.605 578.626 230.449 578.264 230.002C578.539 229.884 578.846 230.057 579.22 230.496Z" fill="#5481AB"/>
<path d="M552.909 341.519C552.974 341.766 552.985 342.005 552.778 342.511C552.286 342.589 552.093 342.337 551.983 342.022C551.983 342.022 552.343 341.702 552.553 341.576C552.764 341.451 552.855 341.512 552.909 341.519Z" fill="#5380AB"/>
<path d="M299.607 306.56C299.631 306.118 299.828 305.868 300.402 305.686C300.733 305.715 301.009 306.009 300.898 306.226C300.587 306.714 300.328 306.902 300.01 307.01C300.01 307.01 299.734 306.716 299.607 306.56Z" fill="#5481AD"/>
<path d="M300.606 305.559C300.628 305.112 300.824 304.857 301.397 304.672C301.729 304.705 302.009 305.009 301.898 305.226C301.587 305.713 301.328 305.902 301.009 306.01C301.009 306.01 300.733 305.715 300.606 305.559Z" fill="#5481AD"/>
<path d="M301.602 304.542C301.627 304.093 301.824 303.844 302.397 303.667C302.728 303.704 303.008 304.008 302.897 304.225C302.586 304.712 302.327 304.901 302.008 305.008C302.008 305.008 301.728 304.705 301.602 304.542Z" fill="#5481AD"/>
<path d="M578.214 229.493C577.954 229.608 577.621 229.456 577.245 229.016C577.515 228.893 577.828 229.06 578.214 229.493Z" fill="#5481AB"/>
<path d="M643.276 631.271C643.29 631.697 643.118 631.968 642.672 632.328C642.473 632.465 642.216 632.217 642.202 631.878C642.384 631.275 642.632 631.078 642.934 630.948C642.934 630.948 643.163 631.162 643.276 631.271Z" fill="#5380AB"/>
<path d="M302.602 303.541C302.627 303.091 302.825 302.841 303.399 302.666C303.73 302.704 304.007 303.008 303.896 303.225C303.586 303.712 303.326 303.901 303.008 304.008C303.008 304.008 302.728 303.704 302.602 303.541Z" fill="#5481AD"/>
<path d="M303.605 302.541C303.614 302.118 303.794 301.897 304.199 301.596C304.378 301.478 304.705 301.73 304.745 302.087C304.585 302.713 304.326 302.901 304.007 303.008C304.007 303.008 303.73 302.704 303.605 302.541Z" fill="#5481AD"/>
<path d="M309.618 296.563C309.632 296.139 309.819 295.912 310.242 295.608C310.429 295.49 310.73 295.744 310.759 296.095C310.588 296.714 310.33 296.903 310.015 297.012C310.015 297.012 309.742 296.719 309.618 296.563Z" fill="#5481AD"/>
<path d="M582.031 236.996C582.068 236.711 582.105 236.426 582.262 235.726C582.642 235.587 582.902 235.865 583.232 236.428C583.303 236.712 583.131 236.874 582.814 236.941C582.497 237.008 582.031 236.996 582.031 236.996Z" fill="#5481AB"/>
<path d="M649.012 622.995C649.227 623.01 649.442 623.025 649.979 623.078C650.127 623.421 649.952 623.726 649.452 624.078C649.126 624.125 648.923 623.94 648.947 623.704C648.972 623.468 649.012 622.995 649.012 622.995Z" fill="#5380AB"/>
<path d="M649.227 624.219C649.26 624.648 649.1 624.932 648.522 625.177C648.194 625.19 647.961 624.96 648.074 624.749C648.382 624.276 648.627 624.077 648.923 623.939C648.923 623.939 649.126 624.125 649.227 624.219Z" fill="#5380AB"/>
<path d="M648.309 625.305C648.319 625.727 648.149 625.992 647.724 626.356C647.535 626.498 647.247 626.243 647.222 625.892C647.394 625.273 647.648 625.079 647.961 624.961C647.961 624.961 648.193 625.19 648.309 625.305Z" fill="#5380AB"/>
<path d="M287.661 319.653C287.65 319.237 287.815 318.981 288.222 318.624C288.404 318.485 288.716 318.734 288.751 319.087C288.588 319.71 288.331 319.9 288.015 320.012C288.015 320.012 287.777 319.774 287.661 319.653Z" fill="#5481AD"/>
<path d="M228.307 434.964C232.135 422.806 236.277 410.611 240.698 398.206C241.526 398.446 242.621 399.118 242.542 399.314C240.909 403.345 238.859 407.225 237.467 411.33C235.131 418.219 233.197 425.245 231.047 432.606C230.207 433.643 229.414 434.285 228.307 434.964Z" fill="#3C7ABC"/>
<path d="M452.742 223.977C453.861 223.819 454.728 223.674 455.81 223.276C456.768 223.01 457.51 222.998 458.623 222.969C459.858 222.809 460.722 222.666 461.796 222.264C463.075 221.995 464.144 221.985 465.943 221.978C467.112 221.984 467.552 221.987 467.992 221.991C465.313 223.006 462.705 224.347 459.937 224.956C456.185 225.782 452.31 226.046 448.242 226.271C448.1 225.664 448.29 225.4 449.123 225.091C450.446 224.658 451.214 224.331 451.981 224.004C452.15 224 452.319 223.995 452.742 223.977Z" fill="#3C7ABC"/>
<path d="M354.021 262.411C355.706 261.336 357.316 260.57 359.035 259.48C361.186 258.46 363.229 257.763 365.632 257.027C364.946 258.353 364.177 260.226 362.796 260.982C359.262 262.916 355.456 264.353 351.378 265.993C351.981 264.905 352.963 263.813 354.021 262.411Z" fill="#3C7ABC"/>
<path d="M380.076 247.538C381.519 247.145 382.852 247.069 384.59 246.989C381.24 249.319 377.486 251.652 373.354 253.984C375.307 251.94 377.637 249.897 380.076 247.538Z" fill="#3C7ABC"/>
<path d="M303.897 303.225C304.326 302.901 304.585 302.713 304.896 302.227C305.008 302.011 305.505 302.003 305.754 302.004C303.906 304.666 301.809 307.326 299.347 309.988C298.988 309.551 298.994 309.112 299.009 308.343C299.333 307.903 299.591 307.712 299.899 307.226C300.328 306.903 300.587 306.714 300.898 306.226C301.328 305.902 301.587 305.713 301.897 305.226C302.327 304.902 302.586 304.713 302.897 304.225C303.327 303.901 303.586 303.712 303.897 303.225Z" fill="#3C7ABC"/>
<path d="M270.328 345.951C271.107 344.084 272.246 342.185 273.686 340.139C272.889 341.967 271.788 343.943 270.328 345.951Z" fill="#3C7ABC"/>
<path d="M368.197 256.248C369.095 255.323 370.198 254.661 371.651 254C370.801 254.838 369.602 255.674 368.197 256.248Z" fill="#3C7ABC"/>
<path d="M310.011 297.26C310.331 296.903 310.589 296.714 310.901 296.232C312.108 295.693 313.203 295.37 314.641 295.009C313.571 295.978 312.157 296.985 310.376 297.997C310.009 298.003 310.006 297.507 310.011 297.26Z" fill="#3C7ABC"/>
<path d="M288.007 320.34C288.331 319.9 288.588 319.71 288.897 319.224C289.007 319.008 289.501 318.998 289.747 318.996C289.553 319.96 289.111 320.926 288.321 321.937C287.981 321.545 287.989 321.107 288.007 320.34Z" fill="#3C7ABC"/>
<path d="M274.334 339.941C274.464 339.085 274.94 338.18 275.705 337.132C275.556 337.957 275.118 338.924 274.334 339.941Z" fill="#3C7ABC"/>
<path d="M242.332 393.959C242.454 393.357 242.899 392.712 243.661 392.016C243.538 392.615 243.096 393.265 242.332 393.959Z" fill="#3C7ABC"/>
<path d="M482.648 276.034C482.203 276.361 481.422 276.675 480.303 276.981C480.746 276.656 481.529 276.339 482.648 276.034Z" fill="#5280AB"/>
<path d="M548.182 220.273C548.83 220.16 549.695 220.301 550.77 220.695C550.119 220.809 549.259 220.668 548.182 220.273Z" fill="#5280AB"/>
<path d="M468.001 221.749C467.552 221.987 467.113 221.983 466.344 221.965C466.491 221.648 466.968 221.346 467.743 221.034C468.042 221.026 468.011 221.508 468.001 221.749Z" fill="#5280AB"/>
<path d="M584.816 247.078C584.982 247.155 584.986 247.327 584.986 247.758C584.872 247.735 584.762 247.455 584.816 247.078Z" fill="#5280AB"/>
<path d="M463.771 279.144C463.884 279.364 463.692 279.613 463.197 279.893C463.088 279.677 463.279 279.426 463.771 279.144Z" fill="#5280AB"/>
<path d="M469.769 278.141C469.88 278.369 469.681 278.617 469.165 278.877C469.071 278.659 469.275 278.416 469.769 278.141Z" fill="#5280AB"/>
<path d="M582.127 237.219C582.032 236.996 582.498 237.008 582.73 237.023C582.962 237.037 582.983 237.536 582.981 237.785C582.665 237.916 582.413 237.719 582.127 237.219Z" fill="#5280AB"/>
<path d="M648.074 624.749C647.649 625.079 647.394 625.272 647.085 625.757C646.659 626.085 646.402 626.276 646.093 626.76C644.982 628.061 643.983 629.147 642.959 630.59C642.632 631.078 642.384 631.275 642.077 631.751C641.655 632.078 641.395 632.263 641.057 632.722C640.633 633.065 640.384 633.263 640.055 633.723C639.634 634.067 639.385 634.264 639.056 634.725C638.635 635.068 638.386 635.265 638.057 635.725C637.635 636.068 637.386 636.265 637.057 636.725C636.635 637.068 636.386 637.265 636.057 637.724C635.638 638.065 635.39 638.258 635.055 638.706C631.276 641.942 627.634 644.989 623.976 648.017C618.667 652.412 613.346 656.794 607.935 661.507C605.69 662.673 603.346 663.203 601.42 664.404C585.823 674.133 568.983 680.749 551.255 685.475C531.537 690.731 511.412 691.081 491.418 689.667C477.516 688.683 463.851 685.098 450.543 680.05C436.172 674.6 422.692 667.759 410.215 658.992C398.122 650.494 386.646 641.104 377.649 629.236C369.859 618.961 361.776 608.748 355.376 597.615C345.175 579.869 337.817 560.798 336.054 540.147C334.899 526.617 333.636 512.962 334.262 499.448C335.018 483.103 338.686 467.096 344.608 451.667C350.644 435.941 358.24 421.138 368.498 407.74C368.869 407.254 368.874 406.489 369.105 405.503C374.454 399.382 379.749 393.613 385.096 387.496C386.706 386.321 388.571 385.805 389.774 384.618C406.832 367.779 427.437 356.763 449.442 348.017C473.205 338.572 498.066 336.824 523.217 338.144C532.568 338.635 541.839 340.672 551.565 342.012C552.094 342.337 552.287 342.589 552.785 342.869C563.054 349.942 567.378 359.307 566.122 371.677C565.105 381.7 553.418 394.766 543.367 394.892C530.495 395.052 517.613 394.292 504.733 394.006C483.888 393.545 464.883 399.897 447.305 410.503C425.045 423.935 409.18 442.976 398.939 466.939C391.055 485.386 388.349 504.678 390.249 524.281C392.511 547.607 401.124 568.659 415.699 587.488C429.87 605.796 448.044 618.033 468.93 626.923C470.27 627.493 471.787 627.647 473.622 628.001C480.176 629.662 486.243 631.858 492.502 632.868C509.423 635.6 526.271 634.187 542.729 629.775C558.103 625.653 571.973 618.102 584.253 608.04C590.613 602.829 596.07 596.513 601.975 590.354C606.233 584.556 611.011 579.438 614.55 573.572C621.331 562.331 625.444 550.018 628.413 537.16C629.608 531.986 633.488 527.225 636.854 522.816C640.445 518.11 644.872 514.043 648.975 509.355C651.76 506.43 654.673 504.004 657.209 501.232C661.657 496.37 668.09 494.115 673.814 496.55C680.174 499.255 685.247 503.627 685.952 511.069C687.639 528.896 684.724 546.277 679.697 563.271C674.512 580.799 666.447 597.072 656.363 612.318C654.094 615.75 651.515 618.978 649.046 622.647C649.013 622.995 648.972 623.468 648.948 623.704C648.627 624.077 648.382 624.276 648.074 624.749Z" fill="#397ABF"/>
<path d="M430.331 229.93C430.806 229.313 431.599 228.686 432.714 228.046C432.241 228.662 431.445 229.291 430.331 229.93Z" fill="#5280AB"/>
<path d="M425.305 230.956C425.478 230.659 425.946 230.35 426.711 230.024C426.538 230.32 426.069 230.632 425.305 230.956Z" fill="#5280AB"/>
<path d="M439.301 226.968C439.481 226.671 439.958 226.361 440.736 226.043C440.557 226.341 440.078 226.647 439.301 226.968Z" fill="#5280AB"/>
<path d="M415.301 233.971C415.48 233.674 415.957 233.361 416.736 233.037C416.558 233.336 416.079 233.646 415.301 233.971Z" fill="#5280AB"/>
<path d="M451.647 224.004C451.213 224.331 450.446 224.658 449.344 224.978C449.777 224.649 450.545 224.326 451.647 224.004Z" fill="#5280AB"/>
</svg>
